# Blender 4.3.2
# www.blender.org
mtllib Camera_Model2.mtl
o Cube
v 1.000000 1.000000 -1.000000
v 1.000000 -1.000000 -1.000000
v 1.000000 1.000000 -0.750000
v 1.000000 -1.000000 -0.750000
v -1.000000 1.000000 -1.000000
v -1.000000 -1.000000 -1.000000
v -1.000000 1.000000 -0.750000
v -1.000000 -1.000000 -0.750000
v 0.500000 -0.500000 -1.500000
v -0.500000 -0.500000 -1.500000
v 0.500000 0.500000 -1.500000
v -0.500000 0.500000 -1.500000
v 0.500000 -0.500000 -1.750000
v -0.500000 -0.500000 -1.750000
v 0.500000 0.500000 -1.750000
v -0.500000 0.500000 -1.750000
v 0.375000 -0.375000 -1.650000
v -0.375000 -0.375000 -1.650000
v 0.375000 0.375000 -1.650000
v -0.375000 0.375000 -1.650000
v -0.250000 1.000000 -1.250000
v 0.250000 1.000000 -1.250000
v -0.500000 0.500000 -1.500000
v 0.500000 0.500000 -1.500000
v -0.113181 1.528295 -1.443409
v 0.113181 1.528295 -1.443409
v -0.056591 0.721705 -1.556591
v 0.056591 0.721705 -1.556591
v -0.500000 -0.500000 0.000000
v -0.500000 0.500000 0.000000
v 0.500000 0.500000 0.000000
v 0.500000 -0.500000 0.000000
v -0.500000 -0.500000 1.000000
v -0.500000 0.500000 1.000000
v 0.500000 0.500000 1.000000
v 0.500000 -0.500000 1.000000
v -1.000000 -1.000000 1.000000
v -1.000000 1.000000 1.000000
v 1.000000 1.000000 1.000000
v 1.000000 -1.000000 1.000000
v -1.000000 -1.000000 1.500000
v -1.000000 1.000000 1.500000
v 1.000000 1.000000 1.500000
v 1.000000 -1.000000 1.500000
vn -0.0000 1.0000 -0.0000
vn -0.0000 0.8321 0.5547
vn -1.0000 -0.0000 -0.0000
vn -0.0000 -1.0000 -0.0000
vn 1.0000 -0.0000 -0.0000
vn -0.0000 -0.7071 -0.7071
vn 0.7071 -0.0000 -0.7071
vn -0.7071 -0.0000 -0.7071
vn -0.0000 -0.6247 -0.7809
vn -0.0000 -0.0000 -1.0000
vn -0.6247 -0.0000 -0.7809
vn 0.6247 -0.0000 -0.7809
vn -0.0000 0.6247 -0.7809
vn -0.0000 0.3438 0.9390
vn 0.2673 0.5345 -0.8018
vn -0.2673 0.5345 -0.8018
vn -0.0000 0.1390 -0.9903
vn -0.6690 0.2893 -0.6847
vn -0.0000 -0.2473 -0.9689
vn 0.6690 0.2893 -0.6847
vn 0.8321 -0.0000 0.5547
vn -0.8321 -0.0000 0.5547
vn -0.0000 -0.8321 0.5547
vn -0.0000 -0.0000 1.0000
vt 0.625000 0.500000
vt 0.875000 0.500000
vt 0.875000 0.750000
vt 0.625000 0.750000
vt 0.375000 0.000000
vt 0.625000 0.000000
vt 0.625000 0.250000
vt 0.375000 0.250000
vt 0.125000 0.500000
vt 0.375000 0.500000
vt 0.375000 0.750000
vt 0.125000 0.750000
vt 0.625000 1.000000
vt 0.375000 1.000000
s 0
usemtl Material
f 1/1/1 5/2/1 7/3/1 3/4/1
f 3/4/2 7/3/2 30/3/2 31/4/2
f 8/5/3 7/6/3 5/7/3 6/8/3
f 6/9/4 2/10/4 4/11/4 8/12/4
f 2/10/5 1/1/5 3/4/5 4/11/5
f 2/10/6 6/9/6 10/9/6 9/10/6
f 9/10/4 10/9/4 14/9/4 13/10/4
f 11/1/1 12/2/1 23/2/1 24/1/1
f 1/1/7 2/10/7 9/10/7 11/1/7
f 6/8/8 5/7/8 12/7/8 10/8/8
f 16/2/9 15/1/9 19/1/9 20/2/9
f 12/2/1 11/1/1 15/1/1 16/2/1
f 11/1/5 9/10/5 13/10/5 15/1/5
f 10/8/3 12/7/3 16/7/3 14/8/3
f 18/8/10 20/7/10 19/1/10 17/10/10
f 15/1/11 13/10/11 17/10/11 19/1/11
f 14/8/12 16/7/12 20/7/12 18/8/12
f 13/10/13 14/9/13 18/9/13 17/10/13
f 21/2/14 22/1/14 26/1/14 25/2/14
f 1/1/15 11/1/15 24/1/15 22/1/15
f 5/2/1 1/1/1 22/1/1 21/2/1
f 12/7/16 5/7/16 21/7/16 23/7/16
f 25/2/17 26/1/17 28/1/17 27/2/17
f 23/7/18 21/7/18 25/7/18 27/7/18
f 24/1/19 23/2/19 27/2/19 28/1/19
f 22/1/20 24/1/20 28/1/20 26/1/20
f 29/12/4 32/11/4 36/11/4 33/12/4
f 4/11/21 3/4/21 31/4/21 32/11/21
f 7/6/22 8/5/22 29/5/22 30/6/22
f 8/12/23 4/11/23 32/11/23 29/12/23
f 35/4/10 34/3/10 38/3/10 39/4/10
f 32/11/5 31/4/5 35/4/5 36/11/5
f 31/4/1 30/3/1 34/3/1 35/4/1
f 30/6/3 29/5/3 33/5/3 34/6/3
f 37/12/4 40/11/4 44/11/4 41/12/4
f 34/6/10 33/5/10 37/5/10 38/6/10
f 33/12/10 36/11/10 40/11/10 37/12/10
f 36/11/10 35/4/10 39/4/10 40/11/10
f 44/11/24 43/4/24 42/13/24 41/14/24
f 40/11/5 39/4/5 43/4/5 44/11/5
f 39/4/1 38/3/1 42/3/1 43/4/1
f 38/6/3 37/5/3 41/5/3 42/6/3
