# Blender 4.3.2
# www.blender.org
mtllib Pivit_Origin2.mtl
o Cube
v 1.000000 1.000000 -1.000000
v 1.000000 -1.000000 -1.000000
v 1.000000 1.000000 1.000000
v 1.000000 -1.000000 1.000000
v -1.000000 1.000000 -1.000000
v -1.000000 -1.000000 -1.000000
v -1.000000 1.000000 1.000000
v -1.000000 -1.000000 1.000000
vn -0.0000 1.0000 -0.0000
vn -0.0000 -0.0000 1.0000
vn -1.0000 -0.0000 -0.0000
vn -0.0000 -1.0000 -0.0000
vn 1.0000 -0.0000 -0.0000
vn -0.0000 -0.0000 -1.0000
vt 0.625000 0.500000
vt 0.875000 0.500000
vt 0.875000 0.750000
vt 0.625000 0.750000
vt 0.375000 0.750000
vt 0.625000 1.000000
vt 0.375000 1.000000
vt 0.375000 0.000000
vt 0.625000 0.000000
vt 0.625000 0.250000
vt 0.375000 0.250000
vt 0.125000 0.500000
vt 0.375000 0.500000
vt 0.125000 0.750000
s 0
usemtl Material
f 1/1/1 5/2/1 7/3/1 3/4/1
f 4/5/2 3/4/2 7/6/2 8/7/2
f 8/8/3 7/9/3 5/10/3 6/11/3
f 6/12/4 2/13/4 4/5/4 8/14/4
f 2/13/5 1/1/5 3/4/5 4/5/5
f 6/11/6 5/10/6 1/1/6 2/13/6
o Cone
v 0.000000 31.000000 -1.000000
v 0.195090 31.000000 -0.980785
v 0.382683 31.000000 -0.923880
v 0.555570 31.000000 -0.831470
v 0.707107 31.000000 -0.707107
v 0.831470 31.000000 -0.555570
v 0.923880 31.000000 -0.382683
v 0.980785 31.000000 -0.195090
v 1.000000 31.000000 0.000000
v 0.980785 31.000000 0.195090
v 0.923880 31.000000 0.382683
v 0.831470 31.000000 0.555570
v 0.707107 31.000000 0.707107
v 0.555570 31.000000 0.831470
v 0.382683 31.000000 0.923880
v 0.195090 31.000000 0.980785
v 0.000000 31.000000 1.000000
v -0.195090 31.000000 0.980785
v -0.382683 31.000000 0.923880
v -0.555570 31.000000 0.831470
v -0.707107 31.000000 0.707107
v -0.831470 31.000000 0.555570
v -0.923880 31.000000 0.382683
v -0.980785 31.000000 0.195090
v -1.000000 31.000000 0.000000
v -0.980785 31.000000 -0.195090
v -0.923880 31.000000 -0.382683
v -0.831470 31.000000 -0.555570
v -0.707107 31.000000 -0.707107
v -0.555570 31.000000 -0.831470
v -0.382683 31.000000 -0.923880
v -0.195090 31.000000 -0.980785
v 0.000000 33.000000 0.000000
vn 0.0878 0.4455 -0.8910
vn 0.2599 0.4455 -0.8567
vn 0.4220 0.4455 -0.7896
vn 0.5680 0.4455 -0.6921
vn 0.6921 0.4455 -0.5680
vn 0.7896 0.4455 -0.4220
vn 0.8567 0.4455 -0.2599
vn 0.8910 0.4455 -0.0878
vn 0.8910 0.4455 0.0878
vn 0.8567 0.4455 0.2599
vn 0.7896 0.4455 0.4220
vn 0.6921 0.4455 0.5680
vn 0.5680 0.4455 0.6921
vn 0.4220 0.4455 0.7896
vn 0.2599 0.4455 0.8567
vn 0.0878 0.4455 0.8910
vn -0.0878 0.4455 0.8910
vn -0.2599 0.4455 0.8567
vn -0.4220 0.4455 0.7896
vn -0.5680 0.4455 0.6921
vn -0.6921 0.4455 0.5680
vn -0.7896 0.4455 0.4220
vn -0.8567 0.4455 0.2599
vn -0.8910 0.4455 0.0878
vn -0.8910 0.4455 -0.0878
vn -0.8567 0.4455 -0.2599
vn -0.7896 0.4455 -0.4220
vn -0.6921 0.4455 -0.5680
vn -0.5680 0.4455 -0.6921
vn -0.4220 0.4455 -0.7896
vn -0.0000 -1.0000 -0.0000
vn -0.2599 0.4455 -0.8567
vn -0.0878 0.4455 -0.8910
vt 0.250000 0.490000
vt 0.250000 0.250000
vt 0.296822 0.485388
vt 0.341844 0.471731
vt 0.383337 0.449553
vt 0.419706 0.419706
vt 0.449553 0.383337
vt 0.471731 0.341844
vt 0.485388 0.296822
vt 0.490000 0.250000
vt 0.485388 0.203178
vt 0.471731 0.158156
vt 0.449553 0.116663
vt 0.419706 0.080294
vt 0.383337 0.050447
vt 0.341844 0.028269
vt 0.296822 0.014612
vt 0.250000 0.010000
vt 0.203178 0.014612
vt 0.158156 0.028269
vt 0.116663 0.050447
vt 0.080294 0.080294
vt 0.050447 0.116663
vt 0.028269 0.158156
vt 0.014612 0.203178
vt 0.010000 0.250000
vt 0.014612 0.296822
vt 0.028269 0.341844
vt 0.050447 0.383337
vt 0.080294 0.419706
vt 0.116663 0.449553
vt 0.158156 0.471731
vt 0.750000 0.490000
vt 0.796822 0.485388
vt 0.841844 0.471731
vt 0.883337 0.449553
vt 0.919706 0.419706
vt 0.949553 0.383337
vt 0.971731 0.341844
vt 0.985388 0.296822
vt 0.990000 0.250000
vt 0.985388 0.203178
vt 0.971731 0.158156
vt 0.949553 0.116663
vt 0.919706 0.080294
vt 0.883337 0.050447
vt 0.841844 0.028269
vt 0.796822 0.014612
vt 0.750000 0.010000
vt 0.703178 0.014612
vt 0.658156 0.028269
vt 0.616663 0.050447
vt 0.580294 0.080294
vt 0.550447 0.116663
vt 0.528269 0.158156
vt 0.514612 0.203178
vt 0.510000 0.250000
vt 0.514612 0.296822
vt 0.528269 0.341844
vt 0.550447 0.383337
vt 0.580294 0.419706
vt 0.616663 0.449553
vt 0.658156 0.471731
vt 0.703178 0.485388
vt 0.203178 0.485388
s 0
usemtl Material.002
f 9/15/7 41/16/7 10/17/7
f 10/17/8 41/16/8 11/18/8
f 11/18/9 41/16/9 12/19/9
f 12/19/10 41/16/10 13/20/10
f 13/20/11 41/16/11 14/21/11
f 14/21/12 41/16/12 15/22/12
f 15/22/13 41/16/13 16/23/13
f 16/23/14 41/16/14 17/24/14
f 17/24/15 41/16/15 18/25/15
f 18/25/16 41/16/16 19/26/16
f 19/26/17 41/16/17 20/27/17
f 20/27/18 41/16/18 21/28/18
f 21/28/19 41/16/19 22/29/19
f 22/29/20 41/16/20 23/30/20
f 23/30/21 41/16/21 24/31/21
f 24/31/22 41/16/22 25/32/22
f 25/32/23 41/16/23 26/33/23
f 26/33/24 41/16/24 27/34/24
f 27/34/25 41/16/25 28/35/25
f 28/35/26 41/16/26 29/36/26
f 29/36/27 41/16/27 30/37/27
f 30/37/28 41/16/28 31/38/28
f 31/38/29 41/16/29 32/39/29
f 32/39/30 41/16/30 33/40/30
f 33/40/31 41/16/31 34/41/31
f 34/41/32 41/16/32 35/42/32
f 35/42/33 41/16/33 36/43/33
f 36/43/34 41/16/34 37/44/34
f 37/44/35 41/16/35 38/45/35
f 38/45/36 41/16/36 39/46/36
f 9/47/37 10/48/37 11/49/37 12/50/37 13/51/37 14/52/37 15/53/37 16/54/37 17/55/37 18/56/37 19/57/37 20/58/37 21/59/37 22/60/37 23/61/37 24/62/37 25/63/37 26/64/37 27/65/37 28/66/37 29/67/37 30/68/37 31/69/37 32/70/37 33/71/37 34/72/37 35/73/37 36/74/37 37/75/37 38/76/37 39/77/37 40/78/37
f 39/46/38 41/16/38 40/79/38
f 40/79/39 41/16/39 9/15/39
o Cylinder
v 0.000000 -31.000000 -0.500000
v 0.000000 31.000000 -0.500000
v 0.097545 -31.000000 -0.490393
v 0.097545 31.000000 -0.490393
v 0.191342 -31.000000 -0.461940
v 0.191342 31.000000 -0.461940
v 0.277785 -31.000000 -0.415735
v 0.277785 31.000000 -0.415735
v 0.353553 -31.000000 -0.353553
v 0.353553 31.000000 -0.353553
v 0.415735 -31.000000 -0.277785
v 0.415735 31.000000 -0.277785
v 0.461940 -31.000000 -0.191342
v 0.461940 31.000000 -0.191342
v 0.490393 -31.000000 -0.097545
v 0.490393 31.000000 -0.097545
v 0.500000 -31.000000 0.000000
v 0.500000 31.000000 0.000000
v 0.490393 -31.000000 0.097545
v 0.490393 31.000000 0.097545
v 0.461940 -31.000000 0.191342
v 0.461940 31.000000 0.191342
v 0.415735 -31.000000 0.277785
v 0.415735 31.000000 0.277785
v 0.353553 -31.000000 0.353553
v 0.353553 31.000000 0.353553
v 0.277785 -31.000000 0.415735
v 0.277785 31.000000 0.415735
v 0.191342 -31.000000 0.461940
v 0.191342 31.000000 0.461940
v 0.097545 -31.000000 0.490393
v 0.097545 31.000000 0.490393
v 0.000000 -31.000000 0.500000
v 0.000000 31.000000 0.500000
v -0.097545 -31.000000 0.490393
v -0.097545 31.000000 0.490393
v -0.191342 -31.000000 0.461940
v -0.191342 31.000000 0.461940
v -0.277785 -31.000000 0.415735
v -0.277785 31.000000 0.415735
v -0.353553 -31.000000 0.353553
v -0.353553 31.000000 0.353553
v -0.415735 -31.000000 0.277785
v -0.415735 31.000000 0.277785
v -0.461940 -31.000000 0.191342
v -0.461940 31.000000 0.191342
v -0.490393 -31.000000 0.097545
v -0.490393 31.000000 0.097545
v -0.500000 -31.000000 0.000000
v -0.500000 31.000000 0.000000
v -0.490393 -31.000000 -0.097545
v -0.490393 31.000000 -0.097545
v -0.461940 -31.000000 -0.191342
v -0.461940 31.000000 -0.191342
v -0.415735 -31.000000 -0.277785
v -0.415735 31.000000 -0.277785
v -0.353553 -31.000000 -0.353553
v -0.353553 31.000000 -0.353553
v -0.277785 -31.000000 -0.415735
v -0.277785 31.000000 -0.415735
v -0.191342 -31.000000 -0.461940
v -0.191342 31.000000 -0.461940
v -0.097545 -31.000000 -0.490393
v -0.097545 31.000000 -0.490393
vn 0.0980 -0.0000 -0.9952
vn 0.2903 -0.0000 -0.9569
vn 0.4714 -0.0000 -0.8819
vn 0.6344 -0.0000 -0.7730
vn 0.7730 -0.0000 -0.6344
vn 0.8819 -0.0000 -0.4714
vn 0.9569 -0.0000 -0.2903
vn 0.9952 -0.0000 -0.0980
vn 0.9952 -0.0000 0.0980
vn 0.9569 -0.0000 0.2903
vn 0.8819 -0.0000 0.4714
vn 0.7730 -0.0000 0.6344
vn 0.6344 -0.0000 0.7730
vn 0.4714 -0.0000 0.8819
vn 0.2903 -0.0000 0.9569
vn 0.0980 -0.0000 0.9952
vn -0.0980 -0.0000 0.9952
vn -0.2903 -0.0000 0.9569
vn -0.4714 -0.0000 0.8819
vn -0.6344 -0.0000 0.7730
vn -0.7730 -0.0000 0.6344
vn -0.8819 -0.0000 0.4714
vn -0.9569 -0.0000 0.2903
vn -0.9952 -0.0000 0.0980
vn -0.9952 -0.0000 -0.0980
vn -0.9569 -0.0000 -0.2903
vn -0.8819 -0.0000 -0.4714
vn -0.7730 -0.0000 -0.6344
vn -0.6344 -0.0000 -0.7730
vn -0.4714 -0.0000 -0.8819
vn -0.0000 1.0000 -0.0000
vn -0.2903 -0.0000 -0.9569
vn -0.0980 -0.0000 -0.9952
vn -0.0000 -1.0000 -0.0000
vt 1.000000 0.500000
vt 1.000000 1.000000
vt 0.968750 1.000000
vt 0.968750 0.500000
vt 0.937500 1.000000
vt 0.937500 0.500000
vt 0.906250 1.000000
vt 0.906250 0.500000
vt 0.875000 1.000000
vt 0.875000 0.500000
vt 0.843750 1.000000
vt 0.843750 0.500000
vt 0.812500 1.000000
vt 0.812500 0.500000
vt 0.781250 1.000000
vt 0.781250 0.500000
vt 0.750000 1.000000
vt 0.750000 0.500000
vt 0.718750 1.000000
vt 0.718750 0.500000
vt 0.687500 1.000000
vt 0.687500 0.500000
vt 0.656250 1.000000
vt 0.656250 0.500000
vt 0.625000 1.000000
vt 0.625000 0.500000
vt 0.593750 1.000000
vt 0.593750 0.500000
vt 0.562500 1.000000
vt 0.562500 0.500000
vt 0.531250 1.000000
vt 0.531250 0.500000
vt 0.500000 1.000000
vt 0.500000 0.500000
vt 0.468750 1.000000
vt 0.468750 0.500000
vt 0.437500 1.000000
vt 0.437500 0.500000
vt 0.406250 1.000000
vt 0.406250 0.500000
vt 0.375000 1.000000
vt 0.375000 0.500000
vt 0.343750 1.000000
vt 0.343750 0.500000
vt 0.312500 1.000000
vt 0.312500 0.500000
vt 0.281250 1.000000
vt 0.281250 0.500000
vt 0.250000 1.000000
vt 0.250000 0.500000
vt 0.218750 1.000000
vt 0.218750 0.500000
vt 0.187500 1.000000
vt 0.187500 0.500000
vt 0.156250 1.000000
vt 0.156250 0.500000
vt 0.125000 1.000000
vt 0.125000 0.500000
vt 0.093750 1.000000
vt 0.093750 0.500000
vt 0.062500 1.000000
vt 0.062500 0.500000
vt 0.296822 0.485388
vt 0.250000 0.490000
vt 0.203178 0.485388
vt 0.158156 0.471731
vt 0.116663 0.449553
vt 0.080294 0.419706
vt 0.050447 0.383337
vt 0.028269 0.341844
vt 0.014612 0.296822
vt 0.010000 0.250000
vt 0.014612 0.203178
vt 0.028269 0.158156
vt 0.050447 0.116663
vt 0.080294 0.080294
vt 0.116663 0.050447
vt 0.158156 0.028269
vt 0.203178 0.014612
vt 0.250000 0.010000
vt 0.296822 0.014612
vt 0.341844 0.028269
vt 0.383337 0.050447
vt 0.419706 0.080294
vt 0.449553 0.116663
vt 0.471731 0.158156
vt 0.485388 0.203178
vt 0.490000 0.250000
vt 0.485388 0.296822
vt 0.471731 0.341844
vt 0.449553 0.383337
vt 0.419706 0.419706
vt 0.383337 0.449553
vt 0.341844 0.471731
vt 0.031250 1.000000
vt 0.031250 0.500000
vt 0.000000 1.000000
vt 0.000000 0.500000
vt 0.750000 0.490000
vt 0.796822 0.485388
vt 0.841844 0.471731
vt 0.883337 0.449553
vt 0.919706 0.419706
vt 0.949553 0.383337
vt 0.971731 0.341844
vt 0.985388 0.296822
vt 0.990000 0.250000
vt 0.985388 0.203178
vt 0.971731 0.158156
vt 0.949553 0.116663
vt 0.919706 0.080294
vt 0.883337 0.050447
vt 0.841844 0.028269
vt 0.796822 0.014612
vt 0.750000 0.010000
vt 0.703178 0.014612
vt 0.658156 0.028269
vt 0.616663 0.050447
vt 0.580294 0.080294
vt 0.550447 0.116663
vt 0.528269 0.158156
vt 0.514612 0.203178
vt 0.510000 0.250000
vt 0.514612 0.296822
vt 0.528269 0.341844
vt 0.550447 0.383337
vt 0.580294 0.419706
vt 0.616663 0.449553
vt 0.658156 0.471731
vt 0.703178 0.485388
s 0
usemtl Material.001
f 42/80/40 43/81/40 45/82/40 44/83/40
f 44/83/41 45/82/41 47/84/41 46/85/41
f 46/85/42 47/84/42 49/86/42 48/87/42
f 48/87/43 49/86/43 51/88/43 50/89/43
f 50/89/44 51/88/44 53/90/44 52/91/44
f 52/91/45 53/90/45 55/92/45 54/93/45
f 54/93/46 55/92/46 57/94/46 56/95/46
f 56/95/47 57/94/47 59/96/47 58/97/47
f 58/97/48 59/96/48 61/98/48 60/99/48
f 60/99/49 61/98/49 63/100/49 62/101/49
f 62/101/50 63/100/50 65/102/50 64/103/50
f 64/103/51 65/102/51 67/104/51 66/105/51
f 66/105/52 67/104/52 69/106/52 68/107/52
f 68/107/53 69/106/53 71/108/53 70/109/53
f 70/109/54 71/108/54 73/110/54 72/111/54
f 72/111/55 73/110/55 75/112/55 74/113/55
f 74/113/56 75/112/56 77/114/56 76/115/56
f 76/115/57 77/114/57 79/116/57 78/117/57
f 78/117/58 79/116/58 81/118/58 80/119/58
f 80/119/59 81/118/59 83/120/59 82/121/59
f 82/121/60 83/120/60 85/122/60 84/123/60
f 84/123/61 85/122/61 87/124/61 86/125/61
f 86/125/62 87/124/62 89/126/62 88/127/62
f 88/127/63 89/126/63 91/128/63 90/129/63
f 90/129/64 91/128/64 93/130/64 92/131/64
f 92/131/65 93/130/65 95/132/65 94/133/65
f 94/133/66 95/132/66 97/134/66 96/135/66
f 96/135/67 97/134/67 99/136/67 98/137/67
f 98/137/68 99/136/68 101/138/68 100/139/68
f 100/139/69 101/138/69 103/140/69 102/141/69
f 45/142/70 43/143/70 105/144/70 103/145/70 101/146/70 99/147/70 97/148/70 95/149/70 93/150/70 91/151/70 89/152/70 87/153/70 85/154/70 83/155/70 81/156/70 79/157/70 77/158/70 75/159/70 73/160/70 71/161/70 69/162/70 67/163/70 65/164/70 63/165/70 61/166/70 59/167/70 57/168/70 55/169/70 53/170/70 51/171/70 49/172/70 47/173/70
f 102/141/71 103/140/71 105/174/71 104/175/71
f 104/175/72 105/174/72 43/176/72 42/177/72
f 42/178/73 44/179/73 46/180/73 48/181/73 50/182/73 52/183/73 54/184/73 56/185/73 58/186/73 60/187/73 62/188/73 64/189/73 66/190/73 68/191/73 70/192/73 72/193/73 74/194/73 76/195/73 78/196/73 80/197/73 82/198/73 84/199/73 86/200/73 88/201/73 90/202/73 92/203/73 94/204/73 96/205/73 98/206/73 100/207/73 102/208/73 104/209/73
o Cylinder.001
v 0.000000 0.500001 -31.000000
v 0.000000 0.499999 31.000000
v 0.097545 0.490394 -31.000000
v 0.097545 0.490391 31.000000
v 0.191342 0.461941 -31.000000
v 0.191342 0.461938 31.000000
v 0.277785 0.415736 -31.000000
v 0.277785 0.415733 31.000000
v 0.353553 0.353555 -31.000000
v 0.353553 0.353552 31.000000
v 0.415735 0.277786 -31.000000
v 0.415735 0.277784 31.000000
v 0.461940 0.191343 -31.000000
v 0.461940 0.191340 31.000000
v 0.490393 0.097547 -31.000000
v 0.490393 0.097544 31.000000
v 0.500000 0.000001 -31.000000
v 0.500000 -0.000001 31.000000
v 0.490393 -0.097544 -31.000000
v 0.490393 -0.097547 31.000000
v 0.461940 -0.191340 -31.000000
v 0.461940 -0.191343 31.000000
v 0.415735 -0.277784 -31.000000
v 0.415735 -0.277786 31.000000
v 0.353553 -0.353552 -31.000000
v 0.353553 -0.353555 31.000000
v 0.277785 -0.415733 -31.000000
v 0.277785 -0.415736 31.000000
v 0.191342 -0.461938 -31.000000
v 0.191342 -0.461941 31.000000
v 0.097545 -0.490391 -31.000000
v 0.097545 -0.490394 31.000000
v 0.000000 -0.499999 -31.000000
v 0.000000 -0.500001 31.000000
v -0.097545 -0.490391 -31.000000
v -0.097545 -0.490394 31.000000
v -0.191342 -0.461938 -31.000000
v -0.191342 -0.461941 31.000000
v -0.277785 -0.415733 -31.000000
v -0.277785 -0.415736 31.000000
v -0.353553 -0.353552 -31.000000
v -0.353553 -0.353555 31.000000
v -0.415735 -0.277784 -31.000000
v -0.415735 -0.277786 31.000000
v -0.461940 -0.191340 -31.000000
v -0.461940 -0.191343 31.000000
v -0.490393 -0.097544 -31.000000
v -0.490393 -0.097547 31.000000
v -0.500000 0.000001 -31.000000
v -0.500000 -0.000001 31.000000
v -0.490393 0.097547 -31.000000
v -0.490393 0.097544 31.000000
v -0.461940 0.191343 -31.000000
v -0.461940 0.191340 31.000000
v -0.415735 0.277786 -31.000000
v -0.415735 0.277784 31.000000
v -0.353553 0.353555 -31.000000
v -0.353553 0.353552 31.000000
v -0.277785 0.415736 -31.000000
v -0.277785 0.415733 31.000000
v -0.191342 0.461941 -31.000000
v -0.191342 0.461938 31.000000
v -0.097545 0.490394 -31.000000
v -0.097545 0.490391 31.000000
vn 0.0980 0.9952 -0.0000
vn 0.2903 0.9569 -0.0000
vn 0.4714 0.8819 -0.0000
vn 0.6344 0.7730 -0.0000
vn 0.7730 0.6344 -0.0000
vn 0.8819 0.4714 -0.0000
vn 0.9569 0.2903 -0.0000
vn 0.9952 0.0980 -0.0000
vn 0.9952 -0.0980 -0.0000
vn 0.9569 -0.2903 -0.0000
vn 0.8819 -0.4714 -0.0000
vn 0.7730 -0.6344 -0.0000
vn 0.6344 -0.7730 -0.0000
vn 0.4714 -0.8819 -0.0000
vn 0.2903 -0.9569 -0.0000
vn 0.0980 -0.9952 -0.0000
vn -0.0980 -0.9952 -0.0000
vn -0.2903 -0.9569 -0.0000
vn -0.4714 -0.8819 -0.0000
vn -0.6344 -0.7730 -0.0000
vn -0.7730 -0.6344 -0.0000
vn -0.8819 -0.4714 -0.0000
vn -0.9569 -0.2903 -0.0000
vn -0.9952 -0.0980 -0.0000
vn -0.9952 0.0980 -0.0000
vn -0.9569 0.2903 -0.0000
vn -0.8819 0.4714 -0.0000
vn -0.7730 0.6344 -0.0000
vn -0.6344 0.7730 -0.0000
vn -0.4714 0.8819 -0.0000
vn -0.0000 -0.0000 1.0000
vn -0.2903 0.9569 -0.0000
vn -0.0980 0.9952 -0.0000
vn -0.0000 -0.0000 -1.0000
vt 1.000000 0.500000
vt 1.000000 1.000000
vt 0.968750 1.000000
vt 0.968750 0.500000
vt 0.937500 1.000000
vt 0.937500 0.500000
vt 0.906250 1.000000
vt 0.906250 0.500000
vt 0.875000 1.000000
vt 0.875000 0.500000
vt 0.843750 1.000000
vt 0.843750 0.500000
vt 0.812500 1.000000
vt 0.812500 0.500000
vt 0.781250 1.000000
vt 0.781250 0.500000
vt 0.750000 1.000000
vt 0.750000 0.500000
vt 0.718750 1.000000
vt 0.718750 0.500000
vt 0.687500 1.000000
vt 0.687500 0.500000
vt 0.656250 1.000000
vt 0.656250 0.500000
vt 0.625000 1.000000
vt 0.625000 0.500000
vt 0.593750 1.000000
vt 0.593750 0.500000
vt 0.562500 1.000000
vt 0.562500 0.500000
vt 0.531250 1.000000
vt 0.531250 0.500000
vt 0.500000 1.000000
vt 0.500000 0.500000
vt 0.468750 1.000000
vt 0.468750 0.500000
vt 0.437500 1.000000
vt 0.437500 0.500000
vt 0.406250 1.000000
vt 0.406250 0.500000
vt 0.375000 1.000000
vt 0.375000 0.500000
vt 0.343750 1.000000
vt 0.343750 0.500000
vt 0.312500 1.000000
vt 0.312500 0.500000
vt 0.281250 1.000000
vt 0.281250 0.500000
vt 0.250000 1.000000
vt 0.250000 0.500000
vt 0.218750 1.000000
vt 0.218750 0.500000
vt 0.187500 1.000000
vt 0.187500 0.500000
vt 0.156250 1.000000
vt 0.156250 0.500000
vt 0.125000 1.000000
vt 0.125000 0.500000
vt 0.093750 1.000000
vt 0.093750 0.500000
vt 0.062500 1.000000
vt 0.062500 0.500000
vt 0.296822 0.485388
vt 0.250000 0.490000
vt 0.203178 0.485388
vt 0.158156 0.471731
vt 0.116663 0.449553
vt 0.080294 0.419706
vt 0.050447 0.383337
vt 0.028269 0.341844
vt 0.014612 0.296822
vt 0.010000 0.250000
vt 0.014612 0.203178
vt 0.028269 0.158156
vt 0.050447 0.116663
vt 0.080294 0.080294
vt 0.116663 0.050447
vt 0.158156 0.028269
vt 0.203178 0.014612
vt 0.250000 0.010000
vt 0.296822 0.014612
vt 0.341844 0.028269
vt 0.383337 0.050447
vt 0.419706 0.080294
vt 0.449553 0.116663
vt 0.471731 0.158156
vt 0.485388 0.203178
vt 0.490000 0.250000
vt 0.485388 0.296822
vt 0.471731 0.341844
vt 0.449553 0.383337
vt 0.419706 0.419706
vt 0.383337 0.449553
vt 0.341844 0.471731
vt 0.031250 1.000000
vt 0.031250 0.500000
vt 0.000000 1.000000
vt 0.000000 0.500000
vt 0.750000 0.490000
vt 0.796822 0.485388
vt 0.841844 0.471731
vt 0.883337 0.449553
vt 0.919706 0.419706
vt 0.949553 0.383337
vt 0.971731 0.341844
vt 0.985388 0.296822
vt 0.990000 0.250000
vt 0.985388 0.203178
vt 0.971731 0.158156
vt 0.949553 0.116663
vt 0.919706 0.080294
vt 0.883337 0.050447
vt 0.841844 0.028269
vt 0.796822 0.014612
vt 0.750000 0.010000
vt 0.703178 0.014612
vt 0.658156 0.028269
vt 0.616663 0.050447
vt 0.580294 0.080294
vt 0.550447 0.116663
vt 0.528269 0.158156
vt 0.514612 0.203178
vt 0.510000 0.250000
vt 0.514612 0.296822
vt 0.528269 0.341844
vt 0.550447 0.383337
vt 0.580294 0.419706
vt 0.616663 0.449553
vt 0.658156 0.471731
vt 0.703178 0.485388
s 0
usemtl Material.003
f 106/210/74 107/211/74 109/212/74 108/213/74
f 108/213/75 109/212/75 111/214/75 110/215/75
f 110/215/76 111/214/76 113/216/76 112/217/76
f 112/217/77 113/216/77 115/218/77 114/219/77
f 114/219/78 115/218/78 117/220/78 116/221/78
f 116/221/79 117/220/79 119/222/79 118/223/79
f 118/223/80 119/222/80 121/224/80 120/225/80
f 120/225/81 121/224/81 123/226/81 122/227/81
f 122/227/82 123/226/82 125/228/82 124/229/82
f 124/229/83 125/228/83 127/230/83 126/231/83
f 126/231/84 127/230/84 129/232/84 128/233/84
f 128/233/85 129/232/85 131/234/85 130/235/85
f 130/235/86 131/234/86 133/236/86 132/237/86
f 132/237/87 133/236/87 135/238/87 134/239/87
f 134/239/88 135/238/88 137/240/88 136/241/88
f 136/241/89 137/240/89 139/242/89 138/243/89
f 138/243/90 139/242/90 141/244/90 140/245/90
f 140/245/91 141/244/91 143/246/91 142/247/91
f 142/247/92 143/246/92 145/248/92 144/249/92
f 144/249/93 145/248/93 147/250/93 146/251/93
f 146/251/94 147/250/94 149/252/94 148/253/94
f 148/253/95 149/252/95 151/254/95 150/255/95
f 150/255/96 151/254/96 153/256/96 152/257/96
f 152/257/97 153/256/97 155/258/97 154/259/97
f 154/259/98 155/258/98 157/260/98 156/261/98
f 156/261/99 157/260/99 159/262/99 158/263/99
f 158/263/100 159/262/100 161/264/100 160/265/100
f 160/265/101 161/264/101 163/266/101 162/267/101
f 162/267/102 163/266/102 165/268/102 164/269/102
f 164/269/103 165/268/103 167/270/103 166/271/103
f 109/272/104 107/273/104 169/274/104 167/275/104 165/276/104 163/277/104 161/278/104 159/279/104 157/280/104 155/281/104 153/282/104 151/283/104 149/284/104 147/285/104 145/286/104 143/287/104 141/288/104 139/289/104 137/290/104 135/291/104 133/292/104 131/293/104 129/294/104 127/295/104 125/296/104 123/297/104 121/298/104 119/299/104 117/300/104 115/301/104 113/302/104 111/303/104
f 166/271/105 167/270/105 169/304/105 168/305/105
f 168/305/106 169/304/106 107/306/106 106/307/106
f 106/308/107 108/309/107 110/310/107 112/311/107 114/312/107 116/313/107 118/314/107 120/315/107 122/316/107 124/317/107 126/318/107 128/319/107 130/320/107 132/321/107 134/322/107 136/323/107 138/324/107 140/325/107 142/326/107 144/327/107 146/328/107 148/329/107 150/330/107 152/331/107 154/332/107 156/333/107 158/334/107 160/335/107 162/336/107 164/337/107 166/338/107 168/339/107
o Cylinder.002
v -31.000000 0.000001 -0.500000
v 31.000000 -0.000001 -0.500000
v -31.000000 -0.097544 -0.490393
v 31.000000 -0.097547 -0.490393
v -31.000000 -0.191340 -0.461940
v 31.000000 -0.191343 -0.461940
v -31.000000 -0.277784 -0.415735
v 31.000000 -0.277786 -0.415735
v -31.000000 -0.353552 -0.353553
v 31.000000 -0.353555 -0.353553
v -31.000000 -0.415733 -0.277785
v 31.000000 -0.415736 -0.277785
v -31.000000 -0.461938 -0.191342
v 31.000000 -0.461941 -0.191342
v -31.000000 -0.490391 -0.097545
v 31.000000 -0.490394 -0.097545
v -31.000000 -0.499999 0.000000
v 31.000000 -0.500001 0.000000
v -31.000000 -0.490391 0.097545
v 31.000000 -0.490394 0.097545
v -31.000000 -0.461938 0.191342
v 31.000000 -0.461941 0.191342
v -31.000000 -0.415733 0.277785
v 31.000000 -0.415736 0.277785
v -31.000000 -0.353552 0.353553
v 31.000000 -0.353555 0.353553
v -31.000000 -0.277784 0.415735
v 31.000000 -0.277786 0.415735
v -31.000000 -0.191340 0.461940
v 31.000000 -0.191343 0.461940
v -31.000000 -0.097544 0.490393
v 31.000000 -0.097547 0.490393
v -31.000000 0.000001 0.500000
v 31.000000 -0.000001 0.500000
v -31.000000 0.097547 0.490393
v 31.000000 0.097544 0.490393
v -31.000000 0.191343 0.461940
v 31.000000 0.191340 0.461940
v -31.000000 0.277786 0.415735
v 31.000000 0.277784 0.415735
v -31.000000 0.353555 0.353553
v 31.000000 0.353552 0.353553
v -31.000000 0.415736 0.277785
v 31.000000 0.415733 0.277785
v -31.000000 0.461941 0.191342
v 31.000000 0.461938 0.191342
v -31.000000 0.490394 0.097545
v 31.000000 0.490391 0.097545
v -31.000000 0.500001 0.000000
v 31.000000 0.499999 0.000000
v -31.000000 0.490394 -0.097545
v 31.000000 0.490391 -0.097545
v -31.000000 0.461941 -0.191342
v 31.000000 0.461938 -0.191342
v -31.000000 0.415736 -0.277785
v 31.000000 0.415733 -0.277785
v -31.000000 0.353555 -0.353553
v 31.000000 0.353552 -0.353553
v -31.000000 0.277786 -0.415735
v 31.000000 0.277784 -0.415735
v -31.000000 0.191343 -0.461940
v 31.000000 0.191340 -0.461940
v -31.000000 0.097547 -0.490393
v 31.000000 0.097544 -0.490393
vn -0.0000 -0.0980 -0.9952
vn -0.0000 -0.2903 -0.9569
vn -0.0000 -0.4714 -0.8819
vn -0.0000 -0.6344 -0.7730
vn -0.0000 -0.7730 -0.6344
vn -0.0000 -0.8819 -0.4714
vn -0.0000 -0.9569 -0.2903
vn -0.0000 -0.9952 -0.0980
vn -0.0000 -0.9952 0.0980
vn -0.0000 -0.9569 0.2903
vn -0.0000 -0.8819 0.4714
vn -0.0000 -0.7730 0.6344
vn -0.0000 -0.6344 0.7730
vn -0.0000 -0.4714 0.8819
vn -0.0000 -0.2903 0.9569
vn -0.0000 -0.0980 0.9952
vn -0.0000 0.0980 0.9952
vn -0.0000 0.2903 0.9569
vn -0.0000 0.4714 0.8819
vn -0.0000 0.6344 0.7730
vn -0.0000 0.7730 0.6344
vn -0.0000 0.8819 0.4714
vn -0.0000 0.9569 0.2903
vn -0.0000 0.9952 0.0980
vn -0.0000 0.9952 -0.0980
vn -0.0000 0.9569 -0.2903
vn -0.0000 0.8819 -0.4714
vn -0.0000 0.7730 -0.6344
vn -0.0000 0.6344 -0.7730
vn -0.0000 0.4714 -0.8819
vn 1.0000 -0.0000 -0.0000
vn -0.0000 0.2903 -0.9569
vn -0.0000 0.0980 -0.9952
vn -1.0000 -0.0000 -0.0000
vt 1.000000 0.500000
vt 1.000000 1.000000
vt 0.968750 1.000000
vt 0.968750 0.500000
vt 0.937500 1.000000
vt 0.937500 0.500000
vt 0.906250 1.000000
vt 0.906250 0.500000
vt 0.875000 1.000000
vt 0.875000 0.500000
vt 0.843750 1.000000
vt 0.843750 0.500000
vt 0.812500 1.000000
vt 0.812500 0.500000
vt 0.781250 1.000000
vt 0.781250 0.500000
vt 0.750000 1.000000
vt 0.750000 0.500000
vt 0.718750 1.000000
vt 0.718750 0.500000
vt 0.687500 1.000000
vt 0.687500 0.500000
vt 0.656250 1.000000
vt 0.656250 0.500000
vt 0.625000 1.000000
vt 0.625000 0.500000
vt 0.593750 1.000000
vt 0.593750 0.500000
vt 0.562500 1.000000
vt 0.562500 0.500000
vt 0.531250 1.000000
vt 0.531250 0.500000
vt 0.500000 1.000000
vt 0.500000 0.500000
vt 0.468750 1.000000
vt 0.468750 0.500000
vt 0.437500 1.000000
vt 0.437500 0.500000
vt 0.406250 1.000000
vt 0.406250 0.500000
vt 0.375000 1.000000
vt 0.375000 0.500000
vt 0.343750 1.000000
vt 0.343750 0.500000
vt 0.312500 1.000000
vt 0.312500 0.500000
vt 0.281250 1.000000
vt 0.281250 0.500000
vt 0.250000 1.000000
vt 0.250000 0.500000
vt 0.218750 1.000000
vt 0.218750 0.500000
vt 0.187500 1.000000
vt 0.187500 0.500000
vt 0.156250 1.000000
vt 0.156250 0.500000
vt 0.125000 1.000000
vt 0.125000 0.500000
vt 0.093750 1.000000
vt 0.093750 0.500000
vt 0.062500 1.000000
vt 0.062500 0.500000
vt 0.296822 0.485388
vt 0.250000 0.490000
vt 0.203178 0.485388
vt 0.158156 0.471731
vt 0.116663 0.449553
vt 0.080294 0.419706
vt 0.050447 0.383337
vt 0.028269 0.341844
vt 0.014612 0.296822
vt 0.010000 0.250000
vt 0.014612 0.203178
vt 0.028269 0.158156
vt 0.050447 0.116663
vt 0.080294 0.080294
vt 0.116663 0.050447
vt 0.158156 0.028269
vt 0.203178 0.014612
vt 0.250000 0.010000
vt 0.296822 0.014612
vt 0.341844 0.028269
vt 0.383337 0.050447
vt 0.419706 0.080294
vt 0.449553 0.116663
vt 0.471731 0.158156
vt 0.485388 0.203178
vt 0.490000 0.250000
vt 0.485388 0.296822
vt 0.471731 0.341844
vt 0.449553 0.383337
vt 0.419706 0.419706
vt 0.383337 0.449553
vt 0.341844 0.471731
vt 0.031250 1.000000
vt 0.031250 0.500000
vt 0.000000 1.000000
vt 0.000000 0.500000
vt 0.750000 0.490000
vt 0.796822 0.485388
vt 0.841844 0.471731
vt 0.883337 0.449553
vt 0.919706 0.419706
vt 0.949553 0.383337
vt 0.971731 0.341844
vt 0.985388 0.296822
vt 0.990000 0.250000
vt 0.985388 0.203178
vt 0.971731 0.158156
vt 0.949553 0.116663
vt 0.919706 0.080294
vt 0.883337 0.050447
vt 0.841844 0.028269
vt 0.796822 0.014612
vt 0.750000 0.010000
vt 0.703178 0.014612
vt 0.658156 0.028269
vt 0.616663 0.050447
vt 0.580294 0.080294
vt 0.550447 0.116663
vt 0.528269 0.158156
vt 0.514612 0.203178
vt 0.510000 0.250000
vt 0.514612 0.296822
vt 0.528269 0.341844
vt 0.550447 0.383337
vt 0.580294 0.419706
vt 0.616663 0.449553
vt 0.658156 0.471731
vt 0.703178 0.485388
s 0
usemtl Material.004
f 170/340/108 171/341/108 173/342/108 172/343/108
f 172/343/109 173/342/109 175/344/109 174/345/109
f 174/345/110 175/344/110 177/346/110 176/347/110
f 176/347/111 177/346/111 179/348/111 178/349/111
f 178/349/112 179/348/112 181/350/112 180/351/112
f 180/351/113 181/350/113 183/352/113 182/353/113
f 182/353/114 183/352/114 185/354/114 184/355/114
f 184/355/115 185/354/115 187/356/115 186/357/115
f 186/357/116 187/356/116 189/358/116 188/359/116
f 188/359/117 189/358/117 191/360/117 190/361/117
f 190/361/118 191/360/118 193/362/118 192/363/118
f 192/363/119 193/362/119 195/364/119 194/365/119
f 194/365/120 195/364/120 197/366/120 196/367/120
f 196/367/121 197/366/121 199/368/121 198/369/121
f 198/369/122 199/368/122 201/370/122 200/371/122
f 200/371/123 201/370/123 203/372/123 202/373/123
f 202/373/124 203/372/124 205/374/124 204/375/124
f 204/375/125 205/374/125 207/376/125 206/377/125
f 206/377/126 207/376/126 209/378/126 208/379/126
f 208/379/127 209/378/127 211/380/127 210/381/127
f 210/381/128 211/380/128 213/382/128 212/383/128
f 212/383/129 213/382/129 215/384/129 214/385/129
f 214/385/130 215/384/130 217/386/130 216/387/130
f 216/387/131 217/386/131 219/388/131 218/389/131
f 218/389/132 219/388/132 221/390/132 220/391/132
f 220/391/133 221/390/133 223/392/133 222/393/133
f 222/393/134 223/392/134 225/394/134 224/395/134
f 224/395/135 225/394/135 227/396/135 226/397/135
f 226/397/136 227/396/136 229/398/136 228/399/136
f 228/399/137 229/398/137 231/400/137 230/401/137
f 173/402/138 171/403/138 233/404/138 231/405/138 229/406/138 227/407/138 225/408/138 223/409/138 221/410/138 219/411/138 217/412/138 215/413/138 213/414/138 211/415/138 209/416/138 207/417/138 205/418/138 203/419/138 201/420/138 199/421/138 197/422/138 195/423/138 193/424/138 191/425/138 189/426/138 187/427/138 185/428/138 183/429/138 181/430/138 179/431/138 177/432/138 175/433/138
f 230/401/139 231/400/139 233/434/139 232/435/139
f 232/435/140 233/434/140 171/436/140 170/437/140
f 170/438/141 172/439/141 174/440/141 176/441/141 178/442/141 180/443/141 182/444/141 184/445/141 186/446/141 188/447/141 190/448/141 192/449/141 194/450/141 196/451/141 198/452/141 200/453/141 202/454/141 204/455/141 206/456/141 208/457/141 210/458/141 212/459/141 214/460/141 216/461/141 218/462/141 220/463/141 222/464/141 224/465/141 226/466/141 228/467/141 230/468/141 232/469/141
o Cone.001
v 0.000000 -31.000000 -1.000000
v -0.195090 -31.000000 -0.980785
v -0.382683 -31.000000 -0.923880
v -0.555570 -31.000000 -0.831470
v -0.707107 -31.000000 -0.707107
v -0.831470 -31.000000 -0.555570
v -0.923879 -31.000000 -0.382683
v -0.980785 -31.000000 -0.195090
v -1.000000 -31.000000 0.000000
v -0.980785 -31.000000 0.195090
v -0.923879 -31.000000 0.382683
v -0.831470 -31.000000 0.555570
v -0.707107 -31.000000 0.707107
v -0.555570 -31.000000 0.831470
v -0.382683 -31.000000 0.923880
v -0.195090 -31.000000 0.980785
v 0.000000 -31.000000 1.000000
v 0.195090 -31.000000 0.980785
v 0.382684 -31.000000 0.923880
v 0.555570 -31.000000 0.831470
v 0.707107 -31.000000 0.707107
v 0.831470 -31.000000 0.555570
v 0.923880 -31.000000 0.382683
v 0.980785 -31.000000 0.195090
v 1.000000 -31.000000 0.000000
v 0.980785 -31.000000 -0.195090
v 0.923880 -31.000000 -0.382683
v 0.831470 -31.000000 -0.555570
v 0.707107 -31.000000 -0.707107
v 0.555570 -31.000000 -0.831470
v 0.382684 -31.000000 -0.923880
v 0.195090 -31.000000 -0.980785
v -0.000000 -33.000000 0.000000
vn -0.0878 -0.4455 -0.8910
vn -0.2599 -0.4455 -0.8567
vn -0.4220 -0.4455 -0.7896
vn -0.5680 -0.4455 -0.6921
vn -0.6921 -0.4455 -0.5680
vn -0.7896 -0.4455 -0.4220
vn -0.8567 -0.4455 -0.2599
vn -0.8910 -0.4455 -0.0878
vn -0.8910 -0.4455 0.0878
vn -0.8567 -0.4455 0.2599
vn -0.7896 -0.4455 0.4220
vn -0.6921 -0.4455 0.5680
vn -0.5680 -0.4455 0.6921
vn -0.4220 -0.4455 0.7896
vn -0.2599 -0.4455 0.8567
vn -0.0878 -0.4455 0.8910
vn 0.0878 -0.4455 0.8910
vn 0.2599 -0.4455 0.8567
vn 0.4220 -0.4455 0.7896
vn 0.5680 -0.4455 0.6921
vn 0.6921 -0.4455 0.5680
vn 0.7896 -0.4455 0.4220
vn 0.8567 -0.4455 0.2599
vn 0.8910 -0.4455 0.0878
vn 0.8910 -0.4455 -0.0878
vn 0.8567 -0.4455 -0.2599
vn 0.7896 -0.4455 -0.4220
vn 0.6921 -0.4455 -0.5680
vn 0.5680 -0.4455 -0.6921
vn 0.4220 -0.4455 -0.7896
vn -0.0000 1.0000 -0.0000
vn 0.2599 -0.4455 -0.8567
vn 0.0878 -0.4455 -0.8910
vt 0.250000 0.490000
vt 0.250000 0.250000
vt 0.296822 0.485388
vt 0.341844 0.471731
vt 0.383337 0.449553
vt 0.419706 0.419706
vt 0.449553 0.383337
vt 0.471731 0.341844
vt 0.485388 0.296822
vt 0.490000 0.250000
vt 0.485388 0.203178
vt 0.471731 0.158156
vt 0.449553 0.116663
vt 0.419706 0.080294
vt 0.383337 0.050447
vt 0.341844 0.028269
vt 0.296822 0.014612
vt 0.250000 0.010000
vt 0.203178 0.014612
vt 0.158156 0.028269
vt 0.116663 0.050447
vt 0.080294 0.080294
vt 0.050447 0.116663
vt 0.028269 0.158156
vt 0.014612 0.203178
vt 0.010000 0.250000
vt 0.014612 0.296822
vt 0.028269 0.341844
vt 0.050447 0.383337
vt 0.080294 0.419706
vt 0.116663 0.449553
vt 0.158156 0.471731
vt 0.750000 0.490000
vt 0.796822 0.485388
vt 0.841844 0.471731
vt 0.883337 0.449553
vt 0.919706 0.419706
vt 0.949553 0.383337
vt 0.971731 0.341844
vt 0.985388 0.296822
vt 0.990000 0.250000
vt 0.985388 0.203178
vt 0.971731 0.158156
vt 0.949553 0.116663
vt 0.919706 0.080294
vt 0.883337 0.050447
vt 0.841844 0.028269
vt 0.796822 0.014612
vt 0.750000 0.010000
vt 0.703178 0.014612
vt 0.658156 0.028269
vt 0.616663 0.050447
vt 0.580294 0.080294
vt 0.550447 0.116663
vt 0.528269 0.158156
vt 0.514612 0.203178
vt 0.510000 0.250000
vt 0.514612 0.296822
vt 0.528269 0.341844
vt 0.550447 0.383337
vt 0.580294 0.419706
vt 0.616663 0.449553
vt 0.658156 0.471731
vt 0.703178 0.485388
vt 0.203178 0.485388
s 0
usemtl Material.005
f 234/470/142 266/471/142 235/472/142
f 235/472/143 266/471/143 236/473/143
f 236/473/144 266/471/144 237/474/144
f 237/474/145 266/471/145 238/475/145
f 238/475/146 266/471/146 239/476/146
f 239/476/147 266/471/147 240/477/147
f 240/477/148 266/471/148 241/478/148
f 241/478/149 266/471/149 242/479/149
f 242/479/150 266/471/150 243/480/150
f 243/480/151 266/471/151 244/481/151
f 244/481/152 266/471/152 245/482/152
f 245/482/153 266/471/153 246/483/153
f 246/483/154 266/471/154 247/484/154
f 247/484/155 266/471/155 248/485/155
f 248/485/156 266/471/156 249/486/156
f 249/486/157 266/471/157 250/487/157
f 250/487/158 266/471/158 251/488/158
f 251/488/159 266/471/159 252/489/159
f 252/489/160 266/471/160 253/490/160
f 253/490/161 266/471/161 254/491/161
f 254/491/162 266/471/162 255/492/162
f 255/492/163 266/471/163 256/493/163
f 256/493/164 266/471/164 257/494/164
f 257/494/165 266/471/165 258/495/165
f 258/495/166 266/471/166 259/496/166
f 259/496/167 266/471/167 260/497/167
f 260/497/168 266/471/168 261/498/168
f 261/498/169 266/471/169 262/499/169
f 262/499/170 266/471/170 263/500/170
f 263/500/171 266/471/171 264/501/171
f 234/502/172 235/503/172 236/504/172 237/505/172 238/506/172 239/507/172 240/508/172 241/509/172 242/510/172 243/511/172 244/512/172 245/513/172 246/514/172 247/515/172 248/516/172 249/517/172 250/518/172 251/519/172 252/520/172 253/521/172 254/522/172 255/523/172 256/524/172 257/525/172 258/526/172 259/527/172 260/528/172 261/529/172 262/530/172 263/531/172 264/532/172 265/533/172
f 264/501/173 266/471/173 265/534/173
f 265/534/174 266/471/174 234/470/174
o Cone.002
v 31.000000 0.000000 -1.000000
v 31.000000 -0.195090 -0.980785
v 31.000000 -0.382683 -0.923880
v 31.000000 -0.555570 -0.831470
v 31.000000 -0.707107 -0.707107
v 31.000000 -0.831470 -0.555570
v 31.000000 -0.923879 -0.382683
v 31.000000 -0.980785 -0.195090
v 31.000000 -1.000000 0.000000
v 31.000000 -0.980785 0.195090
v 31.000000 -0.923879 0.382683
v 31.000000 -0.831470 0.555570
v 31.000000 -0.707107 0.707107
v 31.000000 -0.555570 0.831470
v 31.000000 -0.382683 0.923880
v 31.000000 -0.195090 0.980785
v 31.000000 0.000000 1.000000
v 31.000000 0.195090 0.980785
v 31.000000 0.382683 0.923880
v 31.000000 0.555570 0.831470
v 31.000000 0.707107 0.707107
v 31.000000 0.831470 0.555570
v 31.000000 0.923880 0.382683
v 31.000000 0.980785 0.195090
v 31.000000 1.000000 0.000000
v 31.000000 0.980785 -0.195090
v 31.000000 0.923880 -0.382683
v 31.000000 0.831470 -0.555570
v 31.000000 0.707107 -0.707107
v 31.000000 0.555570 -0.831470
v 31.000000 0.382683 -0.923880
v 31.000000 0.195090 -0.980785
v 33.000000 -0.000000 0.000000
vn 0.4455 -0.0878 -0.8910
vn 0.4455 -0.2599 -0.8567
vn 0.4455 -0.4220 -0.7896
vn 0.4455 -0.5680 -0.6921
vn 0.4455 -0.6921 -0.5680
vn 0.4455 -0.7896 -0.4220
vn 0.4455 -0.8567 -0.2599
vn 0.4455 -0.8910 -0.0878
vn 0.4455 -0.8910 0.0878
vn 0.4455 -0.8567 0.2599
vn 0.4455 -0.7896 0.4220
vn 0.4455 -0.6921 0.5680
vn 0.4455 -0.5680 0.6921
vn 0.4455 -0.4220 0.7896
vn 0.4455 -0.2599 0.8567
vn 0.4455 -0.0878 0.8910
vn 0.4455 0.0878 0.8910
vn 0.4455 0.2599 0.8567
vn 0.4455 0.4220 0.7896
vn 0.4455 0.5680 0.6921
vn 0.4455 0.6921 0.5680
vn 0.4455 0.7896 0.4220
vn 0.4455 0.8567 0.2599
vn 0.4455 0.8910 0.0878
vn 0.4455 0.8910 -0.0878
vn 0.4455 0.8567 -0.2599
vn 0.4455 0.7896 -0.4220
vn 0.4455 0.6921 -0.5680
vn 0.4455 0.5680 -0.6921
vn 0.4455 0.4220 -0.7896
vn -1.0000 -0.0000 -0.0000
vn 0.4455 0.2599 -0.8567
vn 0.4455 0.0878 -0.8910
vt 0.250000 0.490000
vt 0.250000 0.250000
vt 0.296822 0.485388
vt 0.341844 0.471731
vt 0.383337 0.449553
vt 0.419706 0.419706
vt 0.449553 0.383337
vt 0.471731 0.341844
vt 0.485388 0.296822
vt 0.490000 0.250000
vt 0.485388 0.203178
vt 0.471731 0.158156
vt 0.449553 0.116663
vt 0.419706 0.080294
vt 0.383337 0.050447
vt 0.341844 0.028269
vt 0.296822 0.014612
vt 0.250000 0.010000
vt 0.203178 0.014612
vt 0.158156 0.028269
vt 0.116663 0.050447
vt 0.080294 0.080294
vt 0.050447 0.116663
vt 0.028269 0.158156
vt 0.014612 0.203178
vt 0.010000 0.250000
vt 0.014612 0.296822
vt 0.028269 0.341844
vt 0.050447 0.383337
vt 0.080294 0.419706
vt 0.116663 0.449553
vt 0.158156 0.471731
vt 0.750000 0.490000
vt 0.796822 0.485388
vt 0.841844 0.471731
vt 0.883337 0.449553
vt 0.919706 0.419706
vt 0.949553 0.383337
vt 0.971731 0.341844
vt 0.985388 0.296822
vt 0.990000 0.250000
vt 0.985388 0.203178
vt 0.971731 0.158156
vt 0.949553 0.116663
vt 0.919706 0.080294
vt 0.883337 0.050447
vt 0.841844 0.028269
vt 0.796822 0.014612
vt 0.750000 0.010000
vt 0.703178 0.014612
vt 0.658156 0.028269
vt 0.616663 0.050447
vt 0.580294 0.080294
vt 0.550447 0.116663
vt 0.528269 0.158156
vt 0.514612 0.203178
vt 0.510000 0.250000
vt 0.514612 0.296822
vt 0.528269 0.341844
vt 0.550447 0.383337
vt 0.580294 0.419706
vt 0.616663 0.449553
vt 0.658156 0.471731
vt 0.703178 0.485388
vt 0.203178 0.485388
s 0
usemtl Material.006
f 267/535/175 299/536/175 268/537/175
f 268/537/176 299/536/176 269/538/176
f 269/538/177 299/536/177 270/539/177
f 270/539/178 299/536/178 271/540/178
f 271/540/179 299/536/179 272/541/179
f 272/541/180 299/536/180 273/542/180
f 273/542/181 299/536/181 274/543/181
f 274/543/182 299/536/182 275/544/182
f 275/544/183 299/536/183 276/545/183
f 276/545/184 299/536/184 277/546/184
f 277/546/185 299/536/185 278/547/185
f 278/547/186 299/536/186 279/548/186
f 279/548/187 299/536/187 280/549/187
f 280/549/188 299/536/188 281/550/188
f 281/550/189 299/536/189 282/551/189
f 282/551/190 299/536/190 283/552/190
f 283/552/191 299/536/191 284/553/191
f 284/553/192 299/536/192 285/554/192
f 285/554/193 299/536/193 286/555/193
f 286/555/194 299/536/194 287/556/194
f 287/556/195 299/536/195 288/557/195
f 288/557/196 299/536/196 289/558/196
f 289/558/197 299/536/197 290/559/197
f 290/559/198 299/536/198 291/560/198
f 291/560/199 299/536/199 292/561/199
f 292/561/200 299/536/200 293/562/200
f 293/562/201 299/536/201 294/563/201
f 294/563/202 299/536/202 295/564/202
f 295/564/203 299/536/203 296/565/203
f 296/565/204 299/536/204 297/566/204
f 267/567/205 268/568/205 269/569/205 270/570/205 271/571/205 272/572/205 273/573/205 274/574/205 275/575/205 276/576/205 277/577/205 278/578/205 279/579/205 280/580/205 281/581/205 282/582/205 283/583/205 284/584/205 285/585/205 286/586/205 287/587/205 288/588/205 289/589/205 290/590/205 291/591/205 292/592/205 293/593/205 294/594/205 295/595/205 296/596/205 297/597/205 298/598/205
f 297/566/206 299/536/206 298/599/206
f 298/599/207 299/536/207 267/535/207
o Cone.003
v -31.000000 -0.000000 -1.000000
v -31.000000 0.195090 -0.980785
v -31.000000 0.382683 -0.923880
v -31.000000 0.555570 -0.831470
v -31.000000 0.707107 -0.707107
v -31.000000 0.831470 -0.555570
v -31.000000 0.923880 -0.382683
v -31.000000 0.980785 -0.195090
v -31.000000 1.000000 0.000000
v -31.000000 0.980785 0.195090
v -31.000000 0.923880 0.382683
v -31.000000 0.831470 0.555570
v -31.000000 0.707107 0.707107
v -31.000000 0.555570 0.831470
v -31.000000 0.382683 0.923880
v -31.000000 0.195090 0.980785
v -31.000000 -0.000000 1.000000
v -31.000000 -0.195090 0.980785
v -31.000000 -0.382683 0.923880
v -31.000000 -0.555570 0.831470
v -31.000000 -0.707107 0.707107
v -31.000000 -0.831470 0.555570
v -31.000000 -0.923880 0.382683
v -31.000000 -0.980785 0.195090
v -31.000000 -1.000000 0.000000
v -31.000000 -0.980785 -0.195090
v -31.000000 -0.923880 -0.382683
v -31.000000 -0.831470 -0.555570
v -31.000000 -0.707107 -0.707107
v -31.000000 -0.555570 -0.831470
v -31.000000 -0.382683 -0.923880
v -31.000000 -0.195090 -0.980785
v -33.000000 0.000000 0.000000
vn -0.4455 0.0878 -0.8910
vn -0.4455 0.2599 -0.8567
vn -0.4455 0.4220 -0.7896
vn -0.4455 0.5680 -0.6921
vn -0.4455 0.6921 -0.5680
vn -0.4455 0.7896 -0.4220
vn -0.4455 0.8567 -0.2599
vn -0.4455 0.8910 -0.0878
vn -0.4455 0.8910 0.0878
vn -0.4455 0.8567 0.2599
vn -0.4455 0.7896 0.4220
vn -0.4455 0.6921 0.5680
vn -0.4455 0.5680 0.6921
vn -0.4455 0.4220 0.7896
vn -0.4455 0.2599 0.8567
vn -0.4455 0.0878 0.8910
vn -0.4455 -0.0878 0.8910
vn -0.4455 -0.2599 0.8567
vn -0.4455 -0.4220 0.7896
vn -0.4455 -0.5680 0.6921
vn -0.4455 -0.6921 0.5680
vn -0.4455 -0.7896 0.4220
vn -0.4455 -0.8567 0.2599
vn -0.4455 -0.8910 0.0878
vn -0.4455 -0.8910 -0.0878
vn -0.4455 -0.8567 -0.2599
vn -0.4455 -0.7896 -0.4220
vn -0.4455 -0.6921 -0.5680
vn -0.4455 -0.5680 -0.6921
vn -0.4455 -0.4220 -0.7896
vn 1.0000 -0.0000 -0.0000
vn -0.4455 -0.2599 -0.8567
vn -0.4455 -0.0878 -0.8910
vt 0.250000 0.490000
vt 0.250000 0.250000
vt 0.296822 0.485388
vt 0.341844 0.471731
vt 0.383337 0.449553
vt 0.419706 0.419706
vt 0.449553 0.383337
vt 0.471731 0.341844
vt 0.485388 0.296822
vt 0.490000 0.250000
vt 0.485388 0.203178
vt 0.471731 0.158156
vt 0.449553 0.116663
vt 0.419706 0.080294
vt 0.383337 0.050447
vt 0.341844 0.028269
vt 0.296822 0.014612
vt 0.250000 0.010000
vt 0.203178 0.014612
vt 0.158156 0.028269
vt 0.116663 0.050447
vt 0.080294 0.080294
vt 0.050447 0.116663
vt 0.028269 0.158156
vt 0.014612 0.203178
vt 0.010000 0.250000
vt 0.014612 0.296822
vt 0.028269 0.341844
vt 0.050447 0.383337
vt 0.080294 0.419706
vt 0.116663 0.449553
vt 0.158156 0.471731
vt 0.750000 0.490000
vt 0.796822 0.485388
vt 0.841844 0.471731
vt 0.883337 0.449553
vt 0.919706 0.419706
vt 0.949553 0.383337
vt 0.971731 0.341844
vt 0.985388 0.296822
vt 0.990000 0.250000
vt 0.985388 0.203178
vt 0.971731 0.158156
vt 0.949553 0.116663
vt 0.919706 0.080294
vt 0.883337 0.050447
vt 0.841844 0.028269
vt 0.796822 0.014612
vt 0.750000 0.010000
vt 0.703178 0.014612
vt 0.658156 0.028269
vt 0.616663 0.050447
vt 0.580294 0.080294
vt 0.550447 0.116663
vt 0.528269 0.158156
vt 0.514612 0.203178
vt 0.510000 0.250000
vt 0.514612 0.296822
vt 0.528269 0.341844
vt 0.550447 0.383337
vt 0.580294 0.419706
vt 0.616663 0.449553
vt 0.658156 0.471731
vt 0.703178 0.485388
vt 0.203178 0.485388
s 0
usemtl Material.007
f 300/600/208 332/601/208 301/602/208
f 301/602/209 332/601/209 302/603/209
f 302/603/210 332/601/210 303/604/210
f 303/604/211 332/601/211 304/605/211
f 304/605/212 332/601/212 305/606/212
f 305/606/213 332/601/213 306/607/213
f 306/607/214 332/601/214 307/608/214
f 307/608/215 332/601/215 308/609/215
f 308/609/216 332/601/216 309/610/216
f 309/610/217 332/601/217 310/611/217
f 310/611/218 332/601/218 311/612/218
f 311/612/219 332/601/219 312/613/219
f 312/613/220 332/601/220 313/614/220
f 313/614/221 332/601/221 314/615/221
f 314/615/222 332/601/222 315/616/222
f 315/616/223 332/601/223 316/617/223
f 316/617/224 332/601/224 317/618/224
f 317/618/225 332/601/225 318/619/225
f 318/619/226 332/601/226 319/620/226
f 319/620/227 332/601/227 320/621/227
f 320/621/228 332/601/228 321/622/228
f 321/622/229 332/601/229 322/623/229
f 322/623/230 332/601/230 323/624/230
f 323/624/231 332/601/231 324/625/231
f 324/625/232 332/601/232 325/626/232
f 325/626/233 332/601/233 326/627/233
f 326/627/234 332/601/234 327/628/234
f 327/628/235 332/601/235 328/629/235
f 328/629/236 332/601/236 329/630/236
f 329/630/237 332/601/237 330/631/237
f 300/632/238 301/633/238 302/634/238 303/635/238 304/636/238 305/637/238 306/638/238 307/639/238 308/640/238 309/641/238 310/642/238 311/643/238 312/644/238 313/645/238 314/646/238 315/647/238 316/648/238 317/649/238 318/650/238 319/651/238 320/652/238 321/653/238 322/654/238 323/655/238 324/656/238 325/657/238 326/658/238 327/659/238 328/660/238 329/661/238 330/662/238 331/663/238
f 330/631/239 332/601/239 331/664/239
f 331/664/240 332/601/240 300/600/240
o Cone.004
v 0.000000 1.000000 31.000000
v 0.195090 0.980785 31.000000
v 0.382683 0.923880 31.000000
v 0.555570 0.831470 31.000000
v 0.707107 0.707107 31.000000
v 0.831470 0.555570 31.000000
v 0.923880 0.382683 31.000000
v 0.980785 0.195090 31.000000
v 1.000000 0.000000 31.000000
v 0.980785 -0.195090 31.000000
v 0.923880 -0.382683 31.000000
v 0.831470 -0.555570 31.000000
v 0.707107 -0.707107 31.000000
v 0.555570 -0.831470 31.000000
v 0.382683 -0.923879 31.000000
v 0.195090 -0.980785 31.000000
v 0.000000 -1.000000 31.000000
v -0.195090 -0.980785 31.000000
v -0.382683 -0.923879 31.000000
v -0.555570 -0.831470 31.000000
v -0.707107 -0.707107 31.000000
v -0.831470 -0.555570 31.000000
v -0.923880 -0.382683 31.000000
v -0.980785 -0.195090 31.000000
v -1.000000 0.000000 31.000000
v -0.980785 0.195090 31.000000
v -0.923880 0.382683 31.000000
v -0.831470 0.555570 31.000000
v -0.707107 0.707107 31.000000
v -0.555570 0.831470 31.000000
v -0.382683 0.923880 31.000000
v -0.195090 0.980785 31.000000
v 0.000000 -0.000000 33.000000
vn 0.0878 0.8910 0.4455
vn 0.2599 0.8567 0.4455
vn 0.4220 0.7896 0.4455
vn 0.5680 0.6921 0.4455
vn 0.6921 0.5680 0.4455
vn 0.7896 0.4220 0.4455
vn 0.8567 0.2599 0.4455
vn 0.8910 0.0878 0.4455
vn 0.8910 -0.0878 0.4455
vn 0.8567 -0.2599 0.4455
vn 0.7896 -0.4220 0.4455
vn 0.6921 -0.5680 0.4455
vn 0.5680 -0.6921 0.4455
vn 0.4220 -0.7896 0.4455
vn 0.2599 -0.8567 0.4455
vn 0.0878 -0.8910 0.4455
vn -0.0878 -0.8910 0.4455
vn -0.2599 -0.8567 0.4455
vn -0.4220 -0.7896 0.4455
vn -0.5680 -0.6921 0.4455
vn -0.6921 -0.5680 0.4455
vn -0.7896 -0.4220 0.4455
vn -0.8567 -0.2599 0.4455
vn -0.8910 -0.0878 0.4455
vn -0.8910 0.0878 0.4455
vn -0.8567 0.2599 0.4455
vn -0.7896 0.4220 0.4455
vn -0.6921 0.5680 0.4455
vn -0.5680 0.6921 0.4455
vn -0.4220 0.7896 0.4455
vn -0.0000 -0.0000 -1.0000
vn -0.2599 0.8567 0.4455
vn -0.0878 0.8910 0.4455
vt 0.250000 0.490000
vt 0.250000 0.250000
vt 0.296822 0.485388
vt 0.341844 0.471731
vt 0.383337 0.449553
vt 0.419706 0.419706
vt 0.449553 0.383337
vt 0.471731 0.341844
vt 0.485388 0.296822
vt 0.490000 0.250000
vt 0.485388 0.203178
vt 0.471731 0.158156
vt 0.449553 0.116663
vt 0.419706 0.080294
vt 0.383337 0.050447
vt 0.341844 0.028269
vt 0.296822 0.014612
vt 0.250000 0.010000
vt 0.203178 0.014612
vt 0.158156 0.028269
vt 0.116663 0.050447
vt 0.080294 0.080294
vt 0.050447 0.116663
vt 0.028269 0.158156
vt 0.014612 0.203178
vt 0.010000 0.250000
vt 0.014612 0.296822
vt 0.028269 0.341844
vt 0.050447 0.383337
vt 0.080294 0.419706
vt 0.116663 0.449553
vt 0.158156 0.471731
vt 0.750000 0.490000
vt 0.796822 0.485388
vt 0.841844 0.471731
vt 0.883337 0.449553
vt 0.919706 0.419706
vt 0.949553 0.383337
vt 0.971731 0.341844
vt 0.985388 0.296822
vt 0.990000 0.250000
vt 0.985388 0.203178
vt 0.971731 0.158156
vt 0.949553 0.116663
vt 0.919706 0.080294
vt 0.883337 0.050447
vt 0.841844 0.028269
vt 0.796822 0.014612
vt 0.750000 0.010000
vt 0.703178 0.014612
vt 0.658156 0.028269
vt 0.616663 0.050447
vt 0.580294 0.080294
vt 0.550447 0.116663
vt 0.528269 0.158156
vt 0.514612 0.203178
vt 0.510000 0.250000
vt 0.514612 0.296822
vt 0.528269 0.341844
vt 0.550447 0.383337
vt 0.580294 0.419706
vt 0.616663 0.449553
vt 0.658156 0.471731
vt 0.703178 0.485388
vt 0.203178 0.485388
s 0
usemtl Material.008
f 333/665/241 365/666/241 334/667/241
f 334/667/242 365/666/242 335/668/242
f 335/668/243 365/666/243 336/669/243
f 336/669/244 365/666/244 337/670/244
f 337/670/245 365/666/245 338/671/245
f 338/671/246 365/666/246 339/672/246
f 339/672/247 365/666/247 340/673/247
f 340/673/248 365/666/248 341/674/248
f 341/674/249 365/666/249 342/675/249
f 342/675/250 365/666/250 343/676/250
f 343/676/251 365/666/251 344/677/251
f 344/677/252 365/666/252 345/678/252
f 345/678/253 365/666/253 346/679/253
f 346/679/254 365/666/254 347/680/254
f 347/680/255 365/666/255 348/681/255
f 348/681/256 365/666/256 349/682/256
f 349/682/257 365/666/257 350/683/257
f 350/683/258 365/666/258 351/684/258
f 351/684/259 365/666/259 352/685/259
f 352/685/260 365/666/260 353/686/260
f 353/686/261 365/666/261 354/687/261
f 354/687/262 365/666/262 355/688/262
f 355/688/263 365/666/263 356/689/263
f 356/689/264 365/666/264 357/690/264
f 357/690/265 365/666/265 358/691/265
f 358/691/266 365/666/266 359/692/266
f 359/692/267 365/666/267 360/693/267
f 360/693/268 365/666/268 361/694/268
f 361/694/269 365/666/269 362/695/269
f 362/695/270 365/666/270 363/696/270
f 333/697/271 334/698/271 335/699/271 336/700/271 337/701/271 338/702/271 339/703/271 340/704/271 341/705/271 342/706/271 343/707/271 344/708/271 345/709/271 346/710/271 347/711/271 348/712/271 349/713/271 350/714/271 351/715/271 352/716/271 353/717/271 354/718/271 355/719/271 356/720/271 357/721/271 358/722/271 359/723/271 360/724/271 361/725/271 362/726/271 363/727/271 364/728/271
f 363/696/272 365/666/272 364/729/272
f 364/729/273 365/666/273 333/665/273
o Cone.005
v 0.000000 -1.000000 -31.000000
v 0.195090 -0.980785 -31.000000
v 0.382683 -0.923880 -31.000000
v 0.555570 -0.831470 -31.000000
v 0.707107 -0.707107 -31.000000
v 0.831470 -0.555570 -31.000000
v 0.923880 -0.382683 -31.000000
v 0.980785 -0.195090 -31.000000
v 1.000000 -0.000000 -31.000000
v 0.980785 0.195090 -31.000000
v 0.923880 0.382683 -31.000000
v 0.831470 0.555570 -31.000000
v 0.707107 0.707107 -31.000000
v 0.555570 0.831470 -31.000000
v 0.382683 0.923880 -31.000000
v 0.195090 0.980785 -31.000000
v 0.000000 1.000000 -31.000000
v -0.195090 0.980785 -31.000000
v -0.382683 0.923880 -31.000000
v -0.555570 0.831470 -31.000000
v -0.707107 0.707107 -31.000000
v -0.831470 0.555570 -31.000000
v -0.923880 0.382683 -31.000000
v -0.980785 0.195090 -31.000000
v -1.000000 -0.000000 -31.000000
v -0.980785 -0.195090 -31.000000
v -0.923880 -0.382683 -31.000000
v -0.831470 -0.555570 -31.000000
v -0.707107 -0.707107 -31.000000
v -0.555570 -0.831470 -31.000000
v -0.382683 -0.923880 -31.000000
v -0.195090 -0.980785 -31.000000
v 0.000000 0.000000 -33.000000
vn 0.0878 -0.8910 -0.4455
vn 0.2599 -0.8567 -0.4455
vn 0.4220 -0.7896 -0.4455
vn 0.5680 -0.6921 -0.4455
vn 0.6921 -0.5680 -0.4455
vn 0.7896 -0.4220 -0.4455
vn 0.8567 -0.2599 -0.4455
vn 0.8910 -0.0878 -0.4455
vn 0.8910 0.0878 -0.4455
vn 0.8567 0.2599 -0.4455
vn 0.7896 0.4220 -0.4455
vn 0.6921 0.5680 -0.4455
vn 0.5680 0.6921 -0.4455
vn 0.4220 0.7896 -0.4455
vn 0.2599 0.8567 -0.4455
vn 0.0878 0.8910 -0.4455
vn -0.0878 0.8910 -0.4455
vn -0.2599 0.8567 -0.4455
vn -0.4220 0.7896 -0.4455
vn -0.5680 0.6921 -0.4455
vn -0.6921 0.5680 -0.4455
vn -0.7896 0.4220 -0.4455
vn -0.8567 0.2599 -0.4455
vn -0.8910 0.0878 -0.4455
vn -0.8910 -0.0878 -0.4455
vn -0.8567 -0.2599 -0.4455
vn -0.7896 -0.4220 -0.4455
vn -0.6921 -0.5680 -0.4455
vn -0.5680 -0.6921 -0.4455
vn -0.4220 -0.7896 -0.4455
vn -0.0000 -0.0000 1.0000
vn -0.2599 -0.8567 -0.4455
vn -0.0878 -0.8910 -0.4455
vt 0.250000 0.490000
vt 0.250000 0.250000
vt 0.296822 0.485388
vt 0.341844 0.471731
vt 0.383337 0.449553
vt 0.419706 0.419706
vt 0.449553 0.383337
vt 0.471731 0.341844
vt 0.485388 0.296822
vt 0.490000 0.250000
vt 0.485388 0.203178
vt 0.471731 0.158156
vt 0.449553 0.116663
vt 0.419706 0.080294
vt 0.383337 0.050447
vt 0.341844 0.028269
vt 0.296822 0.014612
vt 0.250000 0.010000
vt 0.203178 0.014612
vt 0.158156 0.028269
vt 0.116663 0.050447
vt 0.080294 0.080294
vt 0.050447 0.116663
vt 0.028269 0.158156
vt 0.014612 0.203178
vt 0.010000 0.250000
vt 0.014612 0.296822
vt 0.028269 0.341844
vt 0.050447 0.383337
vt 0.080294 0.419706
vt 0.116663 0.449553
vt 0.158156 0.471731
vt 0.750000 0.490000
vt 0.796822 0.485388
vt 0.841844 0.471731
vt 0.883337 0.449553
vt 0.919706 0.419706
vt 0.949553 0.383337
vt 0.971731 0.341844
vt 0.985388 0.296822
vt 0.990000 0.250000
vt 0.985388 0.203178
vt 0.971731 0.158156
vt 0.949553 0.116663
vt 0.919706 0.080294
vt 0.883337 0.050447
vt 0.841844 0.028269
vt 0.796822 0.014612
vt 0.750000 0.010000
vt 0.703178 0.014612
vt 0.658156 0.028269
vt 0.616663 0.050447
vt 0.580294 0.080294
vt 0.550447 0.116663
vt 0.528269 0.158156
vt 0.514612 0.203178
vt 0.510000 0.250000
vt 0.514612 0.296822
vt 0.528269 0.341844
vt 0.550447 0.383337
vt 0.580294 0.419706
vt 0.616663 0.449553
vt 0.658156 0.471731
vt 0.703178 0.485388
vt 0.203178 0.485388
s 0
usemtl Material.009
f 366/730/274 398/731/274 367/732/274
f 367/732/275 398/731/275 368/733/275
f 368/733/276 398/731/276 369/734/276
f 369/734/277 398/731/277 370/735/277
f 370/735/278 398/731/278 371/736/278
f 371/736/279 398/731/279 372/737/279
f 372/737/280 398/731/280 373/738/280
f 373/738/281 398/731/281 374/739/281
f 374/739/282 398/731/282 375/740/282
f 375/740/283 398/731/283 376/741/283
f 376/741/284 398/731/284 377/742/284
f 377/742/285 398/731/285 378/743/285
f 378/743/286 398/731/286 379/744/286
f 379/744/287 398/731/287 380/745/287
f 380/745/288 398/731/288 381/746/288
f 381/746/289 398/731/289 382/747/289
f 382/747/290 398/731/290 383/748/290
f 383/748/291 398/731/291 384/749/291
f 384/749/292 398/731/292 385/750/292
f 385/750/293 398/731/293 386/751/293
f 386/751/294 398/731/294 387/752/294
f 387/752/295 398/731/295 388/753/295
f 388/753/296 398/731/296 389/754/296
f 389/754/297 398/731/297 390/755/297
f 390/755/298 398/731/298 391/756/298
f 391/756/299 398/731/299 392/757/299
f 392/757/300 398/731/300 393/758/300
f 393/758/301 398/731/301 394/759/301
f 394/759/302 398/731/302 395/760/302
f 395/760/303 398/731/303 396/761/303
f 366/762/304 367/763/304 368/764/304 369/765/304 370/766/304 371/767/304 372/768/304 373/769/304 374/770/304 375/771/304 376/772/304 377/773/304 378/774/304 379/775/304 380/776/304 381/777/304 382/778/304 383/779/304 384/780/304 385/781/304 386/782/304 387/783/304 388/784/304 389/785/304 390/786/304 391/787/304 392/788/304 393/789/304 394/790/304 395/791/304 396/792/304 397/793/304
f 396/761/305 398/731/305 397/794/305
f 397/794/306 398/731/306 366/730/306
